<svg width="192" height="192" viewBox="0 0 192 192" fill="none" xmlns="http://www.w3.org/2000/svg">
<rect width="192" height="192" fill="#0051BF"/>
<g filter="url(#filter0_d_1_3)">
<path d="M88.7441 141.629C89.2799 141.629 89.3671 142.263 89.7148 142.6C90.0672 142.94 90.4929 142.792 90.8584 143.119C91.2421 143.463 91.1295 143.923 91.5166 144.263C91.8532 144.558 92.2205 144.451 92.5557 144.748C92.9098 145.062 92.8391 145.458 93.1797 145.787C93.5238 146.119 93.9092 146.044 94.2529 146.376C94.5633 146.676 94.5429 147.001 94.8428 147.312C95.1974 147.679 95.951 147.494 95.9512 148.005C95.9512 148.837 95.1196 150.361 94.1494 150.361C93.6654 150.361 93.3973 150.134 93.041 149.807C92.6705 149.466 92.7735 149.015 92.3828 148.698C92.0139 148.399 91.6024 148.589 91.2393 148.282C90.823 147.931 91.0313 147.386 90.6152 147.035C90.2425 146.72 89.8062 146.938 89.4375 146.619C89.0303 146.266 89.2342 145.747 88.8486 145.371C88.476 145.008 88.0056 145.184 87.6357 144.817C87.2919 144.477 87.081 144.192 87.0811 143.708C87.0811 142.461 87.6357 141.629 88.7441 141.629ZM74.0137 60.5H47.9512V41.1875H74.0137V60.5ZM143.771 41.1875V60.5H117.709V41.1875H143.771Z" fill="white"/>
</g>
<path fill-rule="evenodd" clip-rule="evenodd" d="M143.743 102.009C143.743 118.429 138.04 129.179 131.008 136.348C123.98 143.513 115.634 147.092 110.363 149.188L110.312 149.057L110.232 148.943C111.044 148.365 111.438 147.796 111.636 147.123C111.837 146.438 111.838 145.637 111.838 144.577V136.282C111.821 136.299 111.804 136.318 111.785 136.339C111.711 136.422 111.631 136.524 111.559 136.616C111.492 136.703 111.424 136.791 111.381 136.834L111.283 136.735L111.381 136.835L111.249 136.965L111.244 136.971L111.238 136.976L106.514 140.766L106.429 140.657L106.505 140.772L106.438 140.817C106.188 140.986 105.893 141.076 105.592 141.076H105.558C105.191 141.076 104.836 140.942 104.559 140.7L99.1492 135.967C98.8951 135.745 98.563 135.635 98.228 135.663L97.6758 135.71C97.3686 135.736 97.0816 135.875 96.8703 136.102L95.1599 137.936C95.1614 137.937 95.1628 137.938 95.1643 137.939C95.155 137.952 95.1456 137.964 95.1364 137.977C95.0299 138.12 94.8966 138.243 94.7457 138.338C94.5203 138.479 94.2553 138.556 93.9898 138.555C93.2261 138.574 92.5379 137.879 92.5563 137.108V137.011C92.555 136.623 92.7069 136.236 92.9719 135.954C94.2512 134.585 95.5306 133.215 96.8099 131.846C96.9305 131.716 97.0511 131.587 97.1716 131.458C97.2053 131.49 97.2563 131.382 97.29 131.414L97.2534 131.416C104.048 130.455 109.072 126.8 110.53 120.735C106.682 119.933 103.515 116.498 103.515 112.371C103.515 107.654 107.304 103.829 111.977 103.829C116.65 103.829 120.439 107.654 120.439 112.371C120.439 112.81 120.375 113.216 120.28 113.608C120.963 112.261 121.479 110.636 121.479 108.94C121.479 106.641 120.53 104.197 117.721 102.122L117.664 102.084V102.009V64.0625H143.743V102.009Z" fill="white" stroke="white" stroke-width="0.1875"/>
<path d="M74.0543 102.031L74.2054 102.238C74.1542 102.275 74.1043 102.314 74.0543 102.351V102.403H73.9851C71.3496 104.421 70.4511 106.771 70.4511 108.987C70.4511 110.777 71.0376 112.488 71.7866 113.871C71.6552 113.402 71.5598 112.916 71.5598 112.383C71.5598 107.713 75.3447 103.928 80.0136 103.928C84.6825 103.928 88.4674 107.713 88.4674 112.383C88.4674 116.433 85.3589 119.808 81.5602 120.641C82.9657 126.74 88.0128 130.415 94.8616 131.374L94.8424 131.511L94.9501 131.598L91.1019 136.345C90.9218 136.567 90.8234 136.845 90.8234 137.131V137.462C90.8234 137.859 91.0127 138.232 91.3331 138.467L92.4796 139.309C92.6936 139.465 92.952 139.55 93.2172 139.55H94.8234C95.0781 139.55 95.3268 139.472 95.5359 139.327L97.5229 137.944C98.0741 137.561 98.8111 137.583 99.3381 137.999L104.765 142.284C105.417 142.799 105.053 143.847 104.223 143.847H103.784C103.502 143.847 103.331 144.158 103.482 144.396C103.751 144.819 103.448 145.372 102.947 145.372H102.596C102.276 145.372 102.077 145.718 102.238 145.995C102.507 146.456 102.174 147.035 101.641 147.035H101.19C100.911 147.035 100.75 147.351 100.914 147.577C101.211 147.986 100.919 148.559 100.413 148.559H100.125C99.7972 148.56 99.5626 148.877 99.6591 149.191L99.7011 149.327C99.8627 149.853 99.5027 150.395 98.9556 150.45L98.4595 150.499L98.4527 150.5H98.4457C97.7568 150.5 97.1984 149.941 97.1984 149.253V148.171C97.1984 147.836 97.0637 147.515 96.8246 147.281L90.4377 141.016C90.2045 140.787 89.8908 140.659 89.5642 140.659H88.1588C87.8658 140.659 87.5867 140.784 87.392 141.003C86.9193 141.535 86.1075 141.589 85.5682 141.125L80.4792 136.746L80.3931 136.674C80.1874 136.502 79.875 136.649 79.875 136.916V144.263C79.875 145.313 79.8763 146.105 80.0772 146.783C80.2747 147.45 80.6686 148.013 81.4793 148.585L81.3995 148.698L81.3486 148.827C76.0825 146.753 67.7443 143.21 60.7235 136.118C53.6985 129.021 48 118.38 48 102.126H48.2772C48.2772 118.306 53.9463 128.878 60.9203 135.923C67.5512 142.621 75.3693 146.137 80.6437 148.248C80.2183 147.82 79.9623 147.371 79.8114 146.862C79.5966 146.138 79.5978 145.3 79.5978 144.263V136.778H79.6135C79.709 136.366 80.2214 136.17 80.5704 136.461L80.6567 136.533L80.5679 136.639L80.6583 136.534L85.749 140.915C86.1603 141.269 86.773 141.24 87.1492 140.857L87.2326 140.768C87.4766 140.522 87.8099 140.382 88.1588 140.382H89.5642C89.9634 140.382 90.3467 140.538 90.6317 140.818L97.0186 147.083C97.3109 147.369 97.4755 147.762 97.4755 148.171V149.253C97.4755 149.787 97.9074 150.22 98.441 150.223L98.928 150.174C99.3009 150.136 99.5462 149.767 99.4361 149.409L99.3941 149.273C99.2428 148.78 99.6107 148.282 100.125 148.282H100.413C100.692 148.282 100.854 147.966 100.69 147.74C100.392 147.331 100.684 146.758 101.19 146.758H101.641C101.96 146.758 102.16 146.411 101.999 146.134C101.73 145.673 102.062 145.094 102.596 145.094H102.947C103.229 145.094 103.4 144.783 103.249 144.545C102.98 144.123 103.283 143.57 103.784 143.57H104.223C104.79 143.57 105.039 142.853 104.593 142.502L99.1665 138.216C98.7353 137.876 98.1322 137.858 97.6813 138.172L95.6942 139.554C95.4387 139.732 95.1347 139.827 94.8234 139.827H93.2172C92.8931 139.827 92.5773 139.724 92.3159 139.532L91.169 138.691C90.7775 138.404 90.5462 137.947 90.5462 137.462V137.131C90.5462 136.781 90.6663 136.442 90.8864 136.17L94.5815 131.612C87.7735 130.59 82.7079 126.87 81.2885 120.696C81.2877 120.697 81.2869 120.697 81.286 120.697L81.2752 120.639C81.2716 120.623 81.2677 120.607 81.2641 120.591L81.2663 120.59L81.2357 120.425C85.0421 119.719 88.1902 116.381 88.1902 112.383C88.1902 107.866 84.5294 104.205 80.0136 104.205C75.4978 104.205 71.837 107.866 71.837 112.383C71.837 113.265 72.1121 114.008 72.3843 114.835L72.3696 114.839C72.3919 114.873 72.4142 114.906 72.4365 114.938L72.2075 115.094C71.1582 113.555 70.1739 111.345 70.1739 108.987C70.1739 106.694 71.1047 104.275 73.7772 102.213V64.8405H48.2772V102.125H48V64.5633H74.0543V102.031Z" fill="white"/>
<path d="M81.3486 149.104L81.3994 148.975L81.4793 148.862C80.6686 148.29 80.2747 147.727 80.0772 147.061C79.8763 146.383 79.875 145.59 79.875 144.54V137.194C79.875 136.926 80.1874 136.78 80.3931 136.951L80.4791 137.023L85.5682 141.403C86.1075 141.867 86.9193 141.812 87.392 141.28C87.5867 141.061 87.8658 140.936 88.1588 140.936H89.5642C89.8908 140.936 90.2045 141.064 90.4377 141.293L96.8246 147.558C97.0637 147.792 97.1984 148.113 97.1984 148.448V149.53C97.1984 150.219 97.7568 150.777 98.4457 150.777H98.4527L98.4595 150.776L98.9556 150.727C99.5027 150.672 99.8627 150.13 99.7011 149.604L99.6591 149.468C99.5626 149.154 99.7972 148.837 100.125 148.837H100.413C100.919 148.837 101.211 148.263 100.914 147.854C100.75 147.629 100.911 147.312 101.19 147.312H101.641C102.174 147.312 102.507 146.733 102.238 146.272C102.077 145.996 102.276 145.649 102.596 145.649H102.947C103.448 145.649 103.751 145.096 103.482 144.673C103.331 144.435 103.502 144.124 103.784 144.124H104.223C105.053 144.124 105.417 143.076 104.765 142.561L99.3381 138.276C98.8111 137.86 98.0741 137.838 97.5229 138.221L95.5359 139.604C95.3268 139.749 95.0781 139.827 94.8234 139.827H93.2172C92.952 139.827 92.6936 139.743 92.4796 139.586L91.3331 138.745C91.0127 138.51 90.8234 138.136 90.8234 137.739V137.408C90.8234 137.122 90.9218 136.844 91.1019 136.622L94.9501 131.875L94.8424 131.788L94.8616 131.651C88.0128 130.692 82.9657 127.017 81.5602 120.918C85.3589 120.085 88.4674 116.71 88.4674 112.66C88.4674 107.991 84.6825 104.205 80.0136 104.205C75.3447 104.205 71.5598 107.991 71.5598 112.66C71.5598 113.193 71.6552 113.679 71.7866 114.148C71.0376 112.765 70.4511 111.054 70.4511 109.264C70.4511 107.048 71.3496 104.698 73.985 102.68H74.0543V102.628C74.1043 102.591 74.1542 102.552 74.2054 102.515L74.0543 102.308V64.8405H48V102.403C48 118.657 53.6985 129.298 60.7235 136.395C67.7443 143.487 76.0825 147.03 81.3486 149.104Z" fill="white"/>
<defs>
<filter id="filter0_d_1_3" x="47.2012" y="41.1875" width="97.3203" height="110.674" filterUnits="userSpaceOnUse" color-interpolation-filters="sRGB">
<feFlood flood-opacity="0" result="BackgroundImageFix"/>
<feColorMatrix in="SourceAlpha" type="matrix" values="0 0 0 0 0 0 0 0 0 0 0 0 0 0 0 0 0 0 127 0" result="hardAlpha"/>
<feOffset dy="0.75"/>
<feGaussianBlur stdDeviation="0.375"/>
<feComposite in2="hardAlpha" operator="out"/>
<feColorMatrix type="matrix" values="0 0 0 0 0 0 0 0 0 0 0 0 0 0 0 0 0 0 0.25 0"/>
<feBlend mode="normal" in2="BackgroundImageFix" result="effect1_dropShadow_1_3"/>
<feBlend mode="normal" in="SourceGraphic" in2="effect1_dropShadow_1_3" result="shape"/>
</filter>
</defs>
</svg>
