<svg width="192" height="192" viewBox="0 0 192 192" fill="none" xmlns="http://www.w3.org/2000/svg">
<rect width="192" height="192" fill="#1E1E1E"/>
<rect width="192" height="192" fill="#0051BF"/>
<g filter="url(#filter0_d_0_1)">
<path d="M87.3524 151.904C88.0076 151.904 88.1136 152.679 88.5389 153.091C88.9701 153.508 89.491 153.327 89.9384 153.726C90.4078 154.146 90.2699 154.708 90.743 155.124C91.1549 155.485 91.6053 155.354 92.0155 155.718C92.4486 156.101 92.3616 156.586 92.7782 156.988C93.1994 157.394 93.6719 157.302 94.0927 157.709C94.4721 158.076 94.4466 158.473 94.8134 158.852C95.2474 159.301 96.1698 159.076 96.1698 159.7C96.1696 160.717 95.1516 162.581 93.9647 162.581C93.3727 162.581 93.0441 162.304 92.6083 161.903C92.1548 161.486 92.282 160.934 91.8036 160.547C91.3522 160.181 90.8485 160.413 90.4042 160.039C89.8949 159.609 90.1505 158.943 89.6415 158.513C89.1853 158.129 88.6513 158.395 88.2001 158.005C87.7021 157.573 87.9508 156.94 87.4794 156.48C87.0235 156.036 86.4485 156.25 85.996 155.802C85.5753 155.386 85.3172 155.038 85.3173 154.446C85.3174 152.921 85.996 151.904 87.3524 151.904ZM69.328 52.7156H37.4403V29.1042H69.328V52.7156ZM154.68 29.1042V52.7156H122.791V29.1042H154.68Z" fill="white"/>
</g>
<path fill-rule="evenodd" clip-rule="evenodd" d="M154.645 103.465C154.645 123.54 147.666 136.683 139.063 145.448C130.464 154.207 120.252 158.583 113.803 161.145L113.741 160.986L113.643 160.846C114.636 160.14 115.118 159.444 115.36 158.621C115.606 157.784 115.608 156.805 115.608 155.508V145.367C115.587 145.388 115.566 145.411 115.543 145.437C115.452 145.539 115.355 145.662 115.267 145.775C115.184 145.881 115.101 145.99 115.049 146.042L114.929 145.921L115.048 146.043L114.888 146.203L114.881 146.209L114.874 146.215L109.094 150.849L108.989 150.716L109.083 150.857L109.001 150.912C108.694 151.118 108.334 151.228 107.965 151.228H107.924C107.475 151.228 107.041 151.065 106.701 150.768L100.082 144.982C99.7716 144.71 99.3652 144.576 98.9553 144.611L98.2798 144.668C97.9039 144.699 97.5528 144.87 97.2942 145.147L95.2015 147.389C95.2033 147.391 95.205 147.392 95.2068 147.393C95.1955 147.409 95.184 147.424 95.1727 147.439C95.0424 147.614 94.8792 147.765 94.6946 147.88C94.4189 148.054 94.0946 148.147 93.7698 148.147C92.8354 148.169 91.9933 147.32 92.0158 146.377V146.258C92.0143 145.783 92.2002 145.311 92.5243 144.966C94.0896 143.292 95.655 141.618 97.2203 139.943C97.3678 139.785 97.5153 139.627 97.6628 139.47C97.704 139.509 97.7665 139.377 97.8077 139.416L97.763 139.417C106.077 138.243 112.223 133.774 114.007 126.36C109.299 125.378 105.424 121.179 105.424 116.133C105.424 110.366 110.06 105.69 115.778 105.69C121.496 105.69 126.131 110.366 126.131 116.133C126.131 116.67 126.053 117.167 125.937 117.646C126.772 115.998 127.404 114.012 127.404 111.939C127.404 109.127 126.243 106.139 122.806 103.603L122.736 103.556V103.465V57.0713H154.645V103.465Z" fill="white" stroke="white" stroke-width="0.1875"/>
<path d="M69.3783 103.492L69.5631 103.744C69.5005 103.79 69.4393 103.837 69.3783 103.883V103.947H69.2935C66.069 106.413 64.9696 109.287 64.9696 111.996C64.9696 114.185 65.6872 116.276 66.6036 117.967C66.4428 117.394 66.3261 116.8 66.3261 116.148C66.3261 110.439 70.957 105.811 76.6696 105.811C82.3821 105.811 87.013 110.439 87.013 116.148C87.013 121.099 83.2097 125.226 78.5619 126.244C80.2816 133.701 86.4568 138.193 94.8366 139.366L94.813 139.534L94.9448 139.64L90.2364 145.444C90.016 145.716 89.8956 146.055 89.8956 146.405V146.809C89.8957 147.295 90.1273 147.752 90.5193 148.039L91.9221 149.067C92.1839 149.259 92.5001 149.362 92.8246 149.362H94.7899C95.1014 149.362 95.4057 149.267 95.6615 149.089L98.0927 147.399C98.7671 146.93 99.6689 146.958 100.314 147.466L106.954 152.705C107.751 153.334 107.306 154.616 106.29 154.616H105.753C105.408 154.616 105.199 154.996 105.384 155.287C105.713 155.804 105.342 156.48 104.729 156.48H104.3C103.909 156.48 103.664 156.904 103.862 157.242C104.191 157.805 103.784 158.513 103.131 158.513H102.579C102.238 158.513 102.041 158.901 102.241 159.176C102.605 159.676 102.248 160.378 101.629 160.378H101.277C100.875 160.378 100.588 160.766 100.706 161.15L100.758 161.316C100.956 161.959 100.515 162.622 99.8457 162.688L99.2386 162.749L99.2303 162.75H99.2217C98.3789 162.75 97.6956 162.067 97.6956 161.225V159.903C97.6956 159.493 97.5309 159.101 97.2383 158.814L89.4237 151.154C89.1384 150.875 88.7546 150.718 88.355 150.718H86.6355C86.277 150.718 85.9355 150.871 85.6973 151.139C85.1189 151.789 84.1256 151.856 83.4657 151.288L77.2392 145.934L77.1339 145.846C76.8822 145.637 76.5 145.815 76.5 146.143V155.124C76.5 156.408 76.5015 157.377 76.7474 158.206C76.9891 159.021 77.471 159.709 78.4629 160.409L78.3652 160.547L78.303 160.705C71.8598 158.169 61.6578 153.837 53.0675 145.166C44.4722 136.49 37.5 123.48 37.5 103.608H37.8391C37.8391 123.39 44.7755 136.315 53.3083 144.928C61.4214 153.117 70.9871 157.416 77.4406 159.997C76.9201 159.474 76.6068 158.925 76.4222 158.302C76.1594 157.416 76.1609 156.392 76.1609 155.124V145.973H76.1801C76.2969 145.47 76.9238 145.23 77.3508 145.586L77.4564 145.674L77.3478 145.804L77.4584 145.675L83.687 151.032C84.1902 151.464 84.9399 151.429 85.4002 150.961L85.5022 150.852C85.8008 150.55 86.2086 150.379 86.6355 150.379H88.355C88.8434 150.379 89.3125 150.571 89.6612 150.912L97.4757 158.572C97.8334 158.923 98.0348 159.402 98.0348 159.903V161.225C98.0348 161.878 98.5632 162.408 99.2161 162.411L99.8119 162.351C100.268 162.306 100.568 161.854 100.434 161.416L100.382 161.249C100.197 160.648 100.647 160.039 101.277 160.039H101.629C101.971 160.039 102.168 159.652 101.967 159.376C101.603 158.876 101.961 158.175 102.579 158.175H103.131C103.522 158.174 103.766 157.75 103.569 157.413C103.24 156.849 103.647 156.141 104.3 156.141H104.729C105.074 156.141 105.283 155.76 105.098 155.469C104.769 154.953 105.141 154.277 105.753 154.277H106.29C106.984 154.277 107.288 153.401 106.744 152.971L100.104 147.732C99.5762 147.316 98.8382 147.294 98.2865 147.677L95.8553 149.367C95.5426 149.585 95.1707 149.701 94.7899 149.701H92.8246C92.428 149.701 92.0417 149.575 91.7218 149.341L90.3186 148.312C89.8396 147.961 89.5566 147.403 89.5565 146.809V146.405C89.5565 145.977 89.7035 145.563 89.9728 145.231L94.4938 139.658C86.164 138.407 79.9661 133.859 78.2294 126.312C78.2284 126.312 78.2274 126.312 78.2264 126.313L78.2132 126.242C78.2088 126.222 78.204 126.203 78.1996 126.183L78.2023 126.182L78.1648 125.98C82.8221 125.117 86.6739 121.036 86.6739 116.148C86.6739 110.626 82.1948 106.15 76.6696 106.15C71.1443 106.15 66.6652 110.626 66.6652 116.148C66.6652 117.227 67.0019 118.135 67.3349 119.145L67.317 119.151C67.3442 119.192 67.3714 119.232 67.3988 119.272L67.1186 119.463C65.8347 117.581 64.6304 114.879 64.6304 111.996C64.6304 109.193 65.7693 106.235 69.0391 103.714V58.0225H37.8391V103.606H37.5V57.6835H69.3783V103.492Z" fill="white"/>
<path d="M78.3029 161.043L78.3652 160.886L78.4629 160.748C77.471 160.048 76.9891 159.36 76.7474 158.545C76.5015 157.716 76.5 156.747 76.5 155.463V146.482C76.5 146.154 76.8822 145.976 77.1339 146.185L77.2392 146.273L83.4657 151.627C84.1256 152.195 85.1189 152.128 85.6973 151.478C85.9355 151.21 86.277 151.057 86.6355 151.057H88.355C88.7546 151.057 89.1384 151.214 89.4237 151.493L97.2383 159.153C97.5309 159.44 97.6956 159.832 97.6956 160.242V161.564C97.6956 162.406 98.3789 163.089 99.2217 163.089H99.2303L99.2386 163.088L99.8457 163.027C100.515 162.96 100.956 162.298 100.758 161.655L100.706 161.489C100.588 161.105 100.875 160.717 101.277 160.716H101.629C102.248 160.716 102.605 160.015 102.241 159.515C102.041 159.239 102.238 158.852 102.579 158.852H103.131C103.784 158.852 104.191 158.144 103.862 157.581C103.664 157.243 103.909 156.819 104.3 156.819H104.729C105.342 156.819 105.713 156.143 105.384 155.626C105.199 155.335 105.408 154.955 105.753 154.955H106.29C107.306 154.955 107.751 153.673 106.954 153.044L100.314 147.805C99.6689 147.297 98.7671 147.269 98.0927 147.738L95.6615 149.428C95.4057 149.606 95.1014 149.701 94.7899 149.701H92.8246C92.5001 149.701 92.1839 149.598 91.9221 149.406L90.5193 148.378C90.1273 148.091 89.8957 147.634 89.8956 147.148V146.743C89.8956 146.394 90.016 146.055 90.2364 145.783L94.9448 139.979L94.813 139.873L94.8366 139.705C86.4568 138.532 80.2816 134.04 78.5619 126.583C83.2097 125.565 87.013 121.438 87.013 116.487C87.013 110.778 82.3821 106.15 76.6696 106.15C70.957 106.15 66.3261 110.778 66.3261 116.487C66.3261 117.139 66.4428 117.733 66.6036 118.306C65.6872 116.615 64.9696 114.523 64.9696 112.335C64.9696 109.626 66.069 106.752 69.2935 104.286H69.3782V104.222C69.4393 104.176 69.5005 104.129 69.563 104.083L69.3782 103.83V58.0225H37.5V103.947C37.5 123.819 44.4722 136.829 53.0675 145.505C61.6577 154.176 71.8597 158.508 78.3029 161.043Z" fill="white"/>
<defs>
<filter id="filter0_d_0_1" x="36.6903" y="29.1042" width="118.739" height="134.977" filterUnits="userSpaceOnUse" color-interpolation-filters="sRGB">
<feFlood flood-opacity="0" result="BackgroundImageFix"/>
<feColorMatrix in="SourceAlpha" type="matrix" values="0 0 0 0 0 0 0 0 0 0 0 0 0 0 0 0 0 0 127 0" result="hardAlpha"/>
<feOffset dy="0.75"/>
<feGaussianBlur stdDeviation="0.375"/>
<feComposite in2="hardAlpha" operator="out"/>
<feColorMatrix type="matrix" values="0 0 0 0 0 0 0 0 0 0 0 0 0 0 0 0 0 0 0.25 0"/>
<feBlend mode="normal" in2="BackgroundImageFix" result="effect1_dropShadow_0_1"/>
<feBlend mode="normal" in="SourceGraphic" in2="effect1_dropShadow_0_1" result="shape"/>
</filter>
</defs>
</svg>
