<svg width="512" height="512" viewBox="0 0 512 512" fill="none" xmlns="http://www.w3.org/2000/svg">
<rect width="512" height="512" fill="#0051BF"/>
<g filter="url(#filter0_d_1_3)">
<path d="M236.652 378.344C238.081 378.344 238.311 380.034 239.239 380.932C240.179 381.841 241.313 381.446 242.288 382.317C243.312 383.233 243.011 384.461 244.044 385.367C244.941 386.155 245.921 385.869 246.815 386.661C247.76 387.498 247.57 388.556 248.478 389.433C249.396 390.318 250.425 390.117 251.342 391.004C252.17 391.804 252.113 392.671 252.913 393.499C253.859 394.478 255.87 393.985 255.87 395.347C255.87 397.564 253.652 401.63 251.065 401.63C249.774 401.63 249.058 401.025 248.108 400.151C247.12 399.242 247.395 398.041 246.353 397.195C245.369 396.397 244.273 396.903 243.304 396.086C242.194 395.149 242.751 393.697 241.641 392.76C240.647 391.921 239.483 392.502 238.5 391.65C237.414 390.71 237.957 389.327 236.929 388.324C235.935 387.354 234.681 387.823 233.695 386.846C232.778 385.937 232.217 385.18 232.217 383.889C232.217 380.562 233.695 378.344 236.652 378.344ZM197.37 162H127.87V110.5H197.37V162ZM383.391 110.5V162H313.891V110.5H383.391Z" fill="white"/>
</g>
<path fill-rule="evenodd" clip-rule="evenodd" d="M383.316 272.691C383.316 316.478 368.106 345.145 349.354 364.262C330.614 383.367 308.358 392.912 294.302 398.5L294.166 398.153L293.953 397.848C296.117 396.306 297.168 394.79 297.696 392.995C298.232 391.169 298.235 389.033 298.235 386.204V364.085C298.191 364.13 298.144 364.182 298.094 364.237C297.896 364.46 297.683 364.73 297.492 364.976C297.312 365.207 297.13 365.444 297.017 365.558L296.756 365.294L297.016 365.56L296.665 365.908L296.652 365.922L296.636 365.935L284.038 376.041L283.81 375.751L284.014 376.06L283.836 376.179C283.168 376.629 282.382 376.869 281.579 376.869H281.489C280.51 376.869 279.564 376.513 278.824 375.866L264.398 363.245C263.72 362.653 262.835 362.361 261.941 362.436L260.469 362.56C259.65 362.629 258.884 363.001 258.321 363.605L253.76 368.496C253.764 368.499 253.768 368.502 253.771 368.505C253.747 368.538 253.722 368.572 253.697 368.605C253.413 368.987 253.058 369.316 252.655 369.567C252.054 369.945 251.347 370.149 250.639 370.148C248.603 370.197 246.768 368.345 246.817 366.289V366.03C246.813 364.994 247.219 363.963 247.925 363.212C251.337 359.559 254.748 355.907 258.16 352.255C258.481 351.911 258.803 351.566 259.124 351.222C259.214 351.307 259.35 351.019 259.44 351.105L259.343 351.108C277.462 348.548 290.859 338.8 294.746 322.628C284.485 320.487 276.04 311.328 276.04 300.322C276.04 287.743 286.143 277.545 298.605 277.545C311.067 277.545 321.17 287.743 321.17 300.322C321.17 301.493 321 302.577 320.747 303.623C322.567 300.028 323.944 295.695 323.944 291.174C323.944 285.041 321.413 278.524 313.924 272.992L313.772 272.889V272.691V171.5H383.316V272.691Z" fill="white" stroke="white" stroke-width="0.5"/>
<path d="M197.478 272.749L197.881 273.301C197.745 273.4 197.611 273.503 197.478 273.603V273.742H197.293C190.266 279.122 187.87 285.39 187.87 291.299C187.87 296.072 189.434 300.634 191.431 304.323C191.08 303.071 190.826 301.776 190.826 300.354C190.826 287.902 200.919 277.808 213.37 277.808C225.82 277.808 235.913 287.902 235.913 300.354C235.913 311.153 227.624 320.155 217.494 322.376C221.242 338.64 234.701 348.439 252.964 350.996L252.913 351.362L253.2 351.594L242.938 364.253C242.458 364.846 242.196 365.585 242.196 366.348V367.231C242.196 368.291 242.701 369.286 243.555 369.913L246.612 372.156C247.183 372.574 247.872 372.8 248.579 372.8H252.863C253.542 372.8 254.205 372.592 254.762 372.204L260.061 368.518C261.531 367.495 263.496 367.555 264.902 368.664L279.374 380.091C281.112 381.463 280.141 384.258 277.927 384.258H276.757C276.005 384.258 275.549 385.088 275.953 385.723C276.67 386.85 275.861 388.324 274.525 388.324H273.589C272.736 388.324 272.205 389.249 272.634 389.986C273.351 391.215 272.465 392.759 271.042 392.759H269.839C269.095 392.759 268.666 393.604 269.103 394.205C269.896 395.296 269.117 396.825 267.769 396.825H267.001C266.126 396.825 265.5 397.673 265.758 398.51L265.869 398.873C266.301 400.274 265.341 401.72 263.882 401.866L262.559 401.998L262.54 402H262.522C260.685 402 259.196 400.511 259.196 398.673V395.79C259.196 394.897 258.837 394.041 258.199 393.415L241.167 376.708C240.545 376.099 239.709 375.757 238.838 375.757H235.09C234.309 375.757 233.564 376.091 233.045 376.675C231.785 378.093 229.62 378.238 228.182 377.001L214.611 365.322L214.382 365.13C213.833 364.673 213 365.063 213 365.777V385.367C213 388.167 213.003 390.281 213.539 392.089C214.066 393.866 215.116 395.367 217.278 396.893L217.065 397.195L216.93 397.539C202.887 392.007 180.652 382.559 161.929 363.647C143.196 344.723 128 316.346 128 273.003H128.739C128.739 316.15 143.857 344.341 162.454 363.127C180.136 380.989 200.985 390.366 215.05 395.995C213.916 394.854 213.233 393.656 212.83 392.299C212.258 390.367 212.261 388.133 212.261 385.367V365.408H212.303C212.557 364.31 213.924 363.787 214.854 364.562L215.085 364.754L214.848 365.038L215.089 364.758L228.664 376.441C229.761 377.384 231.395 377.307 232.398 376.286L232.62 376.049C233.271 375.391 234.16 375.018 235.09 375.018H238.838C239.902 375.018 240.925 375.435 241.685 376.181L258.716 392.887C259.496 393.652 259.935 394.698 259.935 395.79V398.673C259.935 400.098 261.086 401.253 262.509 401.26L263.808 401.13C264.802 401.031 265.457 400.046 265.163 399.091L265.051 398.727C264.647 397.415 265.629 396.086 267.001 396.086H267.769C268.513 396.086 268.943 395.242 268.506 394.64C267.713 393.55 268.491 392.02 269.839 392.02H271.042C271.894 392.02 272.426 391.095 271.996 390.358C271.279 389.129 272.166 387.585 273.589 387.585H274.525C275.277 387.585 275.733 386.755 275.329 386.12C274.613 384.993 275.422 383.519 276.757 383.519H277.927C279.44 383.519 280.103 381.609 278.915 380.671L264.444 369.244C263.294 368.336 261.686 368.288 260.483 369.124L255.185 372.811C254.503 373.285 253.693 373.539 252.863 373.539H248.579C247.715 373.539 246.873 373.264 246.176 372.752L243.117 370.509C242.073 369.744 241.457 368.526 241.457 367.231V366.348C241.457 365.416 241.777 364.512 242.364 363.788L252.217 351.633C234.063 348.906 220.554 338.986 216.769 322.524C216.767 322.524 216.765 322.525 216.763 322.525L216.734 322.37C216.724 322.327 216.714 322.285 216.704 322.242L216.71 322.241L216.629 321.799C226.779 319.918 235.174 311.015 235.174 300.354C235.174 288.31 225.412 278.547 213.37 278.547C201.327 278.547 191.565 288.31 191.565 300.354C191.565 302.708 192.299 304.688 193.025 306.892L192.986 306.904C193.045 306.993 193.104 307.082 193.164 307.169L192.553 307.585C189.755 303.48 187.13 297.587 187.13 291.299C187.13 285.185 189.613 278.734 196.739 273.234V173.575H128.739V273H128V172.835H197.478V272.749Z" fill="white"/>
<path d="M216.929 398.278L217.065 397.934L217.278 397.632C215.116 396.106 214.066 394.605 213.539 392.828C213.003 391.021 213 388.906 213 386.106V366.516C213 365.802 213.833 365.412 214.382 365.87L214.611 366.061L228.182 377.74C229.62 378.978 231.785 378.833 233.045 377.414C233.564 376.83 234.309 376.496 235.09 376.496H238.838C239.709 376.496 240.545 376.838 241.167 377.448L258.199 394.154C258.837 394.78 259.196 395.636 259.196 396.529V399.413C259.196 401.25 260.685 402.739 262.522 402.739H262.54L262.559 402.737L263.882 402.605C265.34 402.459 266.301 401.013 265.869 399.612L265.758 399.249C265.5 398.412 266.126 397.565 267.001 397.565H267.769C269.117 397.565 269.896 396.035 269.103 394.945C268.666 394.343 269.095 393.499 269.839 393.499H271.042C272.465 393.498 273.351 391.955 272.634 390.725C272.205 389.988 272.736 389.063 273.589 389.063H274.525C275.861 389.063 276.67 387.589 275.953 386.462C275.549 385.828 276.005 384.997 276.757 384.997H277.927C280.141 384.997 281.112 382.202 279.374 380.83L264.902 369.403C263.496 368.294 261.531 368.234 260.061 369.257L254.762 372.944C254.205 373.332 253.542 373.539 252.863 373.539H248.579C247.872 373.539 247.183 373.314 246.612 372.895L243.555 370.652C242.701 370.026 242.196 369.03 242.196 367.97V367.087C242.196 366.325 242.458 365.585 242.938 364.992L253.2 352.334L252.913 352.101L252.964 351.735C234.701 349.178 221.242 339.379 217.494 323.115C227.624 320.894 235.913 311.893 235.913 301.094C235.913 288.641 225.82 278.547 213.37 278.547C200.919 278.547 190.826 288.641 190.826 301.094C190.826 302.516 191.08 303.811 191.431 305.062C189.434 301.374 187.87 296.811 187.87 292.038C187.87 286.129 190.266 279.861 197.293 274.481H197.478V274.342C197.611 274.242 197.745 274.14 197.881 274.04L197.478 273.488V173.575H128V273.742C128 317.085 143.196 345.463 161.929 364.386C180.652 383.298 202.887 392.747 216.929 398.278Z" fill="white"/>
<defs>
<filter id="filter0_d_1_3" x="125.87" y="110.5" width="259.521" height="295.13" filterUnits="userSpaceOnUse" color-interpolation-filters="sRGB">
<feFlood flood-opacity="0" result="BackgroundImageFix"/>
<feColorMatrix in="SourceAlpha" type="matrix" values="0 0 0 0 0 0 0 0 0 0 0 0 0 0 0 0 0 0 127 0" result="hardAlpha"/>
<feOffset dy="2"/>
<feGaussianBlur stdDeviation="1"/>
<feComposite in2="hardAlpha" operator="out"/>
<feColorMatrix type="matrix" values="0 0 0 0 0 0 0 0 0 0 0 0 0 0 0 0 0 0 0.25 0"/>
<feBlend mode="normal" in2="BackgroundImageFix" result="effect1_dropShadow_1_3"/>
<feBlend mode="normal" in="SourceGraphic" in2="effect1_dropShadow_1_3" result="shape"/>
</filter>
</defs>
</svg>
